# xmcd
#
# Track frame offsets:
#	150
#	5442
#	21962
#	42485
#	62877
#	80400
#	98732
#	115362
#	133332
#	149647
#	168147
#	185257
#	199745
#	218785
#	235687
#	250062
#	281267
#
# Disc length: 3796 seconds
#
# Revision: 2
# Processed by: cddbd v1.5.2PL0 Copyright (c) Steve Scherf et al.
# Submitted via: EasyCDDAExtractor 10.0.1.1
#
DISCID=f00ed211
DTITLE=거미 - IT'S DIFFERENT
DYEAR=2004
DGENRE=R&B
TTITLE0=GUMMY SKILLS (INTRO)
TTITLE1=하고 싶었어
TTITLE2=내 곁에 잠이 든 이 밤에
TTITLE3=날 그만 잊어요
TTITLE4=기억상실
TTITLE5=LOVE AGAIN (FEAT. 하동균 OF WANTED)
TTITLE6=TONIGHT (FEAT. WHEESUNG) 
TTITLE7=DANCE DANCE (FEAT. 송백경 OF 1TYM)
TTITLE8=그녀보다 내가 뭐가
TTITLE9=SO MUCH (FEAT. MASTA WU)
TTITLE10=WITCHES (DOO-LOO-WAP) (FEAT. 이은주 and 태빈 OF 1TYM)
TTITLE11=ROUND 1 (FEAT. OF JINU and LEXY) 
TTITLE12=인연
TTITLE13=IT DON'T MATTER NO MORE
TTITLE14=SINGING MY BLUES(OUTRO)
TTITLE15=날 그만 잊어요 (ACOUSTIC VERSION) (BONUS TRACK)
TTITLE16=DATA
EXTD=YEAR: 2004
EXTT0=
EXTT1=
EXTT2=
EXTT3=
EXTT4=
EXTT5=
EXTT6=
EXTT7=
EXTT8=
EXTT9=
EXTT10=
EXTT11=
EXTT12=
EXTT13=
EXTT14=
EXTT15=
EXTT16=
PLAYORDER=
